<svg xmlns="http://www.w3.org/2000/svg" viewBox="0 0 100 100" preserveAspectRatio="xMidYMid" width="315" height="315" style="shape-rendering: auto; display: block; background: rgb(255, 255, 255);" xmlns:xlink="http://www.w3.org/1999/xlink"><g><g transform="rotate(0 50 50)">
  <rect fill="#fe718d" height="8" width="9" ry="4" rx="4.5" y="26" x="45.5">
    <animate repeatCount="indefinite" begin="-0.217735550277118s" dur="0.23752969121140144s" keyTimes="0;1" values="1;0" attributeName="opacity"></animate>
  </rect>
</g><g transform="rotate(30 50 50)">
  <rect fill="#fe718d" height="8" width="9" ry="4" rx="4.5" y="26" x="45.5">
    <animate repeatCount="indefinite" begin="-0.19794140934283452s" dur="0.23752969121140144s" keyTimes="0;1" values="1;0" attributeName="opacity"></animate>
  </rect>
</g><g transform="rotate(60 50 50)">
  <rect fill="#fe718d" height="8" width="9" ry="4" rx="4.5" y="26" x="45.5">
    <animate repeatCount="indefinite" begin="-0.17814726840855108s" dur="0.23752969121140144s" keyTimes="0;1" values="1;0" attributeName="opacity"></animate>
  </rect>
</g><g transform="rotate(90 50 50)">
  <rect fill="#fe718d" height="8" width="9" ry="4" rx="4.5" y="26" x="45.5">
    <animate repeatCount="indefinite" begin="-0.15835312747426764s" dur="0.23752969121140144s" keyTimes="0;1" values="1;0" attributeName="opacity"></animate>
  </rect>
</g><g transform="rotate(120 50 50)">
  <rect fill="#fe718d" height="8" width="9" ry="4" rx="4.5" y="26" x="45.5">
    <animate repeatCount="indefinite" begin="-0.13855898653998416s" dur="0.23752969121140144s" keyTimes="0;1" values="1;0" attributeName="opacity"></animate>
  </rect>
</g><g transform="rotate(150 50 50)">
  <rect fill="#fe718d" height="8" width="9" ry="4" rx="4.5" y="26" x="45.5">
    <animate repeatCount="indefinite" begin="-0.11876484560570072s" dur="0.23752969121140144s" keyTimes="0;1" values="1;0" attributeName="opacity"></animate>
  </rect>
</g><g transform="rotate(180 50 50)">
  <rect fill="#fe718d" height="8" width="9" ry="4" rx="4.5" y="26" x="45.5">
    <animate repeatCount="indefinite" begin="-0.09897070467141726s" dur="0.23752969121140144s" keyTimes="0;1" values="1;0" attributeName="opacity"></animate>
  </rect>
</g><g transform="rotate(210 50 50)">
  <rect fill="#fe718d" height="8" width="9" ry="4" rx="4.5" y="26" x="45.5">
    <animate repeatCount="indefinite" begin="-0.07917656373713382s" dur="0.23752969121140144s" keyTimes="0;1" values="1;0" attributeName="opacity"></animate>
  </rect>
</g><g transform="rotate(240 50 50)">
  <rect fill="#fe718d" height="8" width="9" ry="4" rx="4.5" y="26" x="45.5">
    <animate repeatCount="indefinite" begin="-0.05938242280285036s" dur="0.23752969121140144s" keyTimes="0;1" values="1;0" attributeName="opacity"></animate>
  </rect>
</g><g transform="rotate(270 50 50)">
  <rect fill="#fe718d" height="8" width="9" ry="4" rx="4.5" y="26" x="45.5">
    <animate repeatCount="indefinite" begin="-0.03958828186856691s" dur="0.23752969121140144s" keyTimes="0;1" values="1;0" attributeName="opacity"></animate>
  </rect>
</g><g transform="rotate(300 50 50)">
  <rect fill="#fe718d" height="8" width="9" ry="4" rx="4.5" y="26" x="45.5">
    <animate repeatCount="indefinite" begin="-0.019794140934283454s" dur="0.23752969121140144s" keyTimes="0;1" values="1;0" attributeName="opacity"></animate>
  </rect>
</g><g transform="rotate(330 50 50)">
  <rect fill="#fe718d" height="8" width="9" ry="4" rx="4.5" y="26" x="45.5">
    <animate repeatCount="indefinite" begin="0s" dur="0.23752969121140144s" keyTimes="0;1" values="1;0" attributeName="opacity"></animate>
  </rect>
</g><g></g></g><!-- [ldio] generated by https://loading.io --></svg>